<svg xmlns="http://www.w3.org/2000/svg" width="384.919" height="378.925" viewBox="0 0 384.919 378.925">
  <g id="Group_3" data-name="Group 3" transform="translate(-41.928 -236.851)">
    <g id="Group_4" data-name="Group 4">
      <path id="Path_7" data-name="Path 7" d="M775.773,530.272l-26.925-26.925h26.925Z" transform="translate(-621.176 -226.044)" fill="#0053d1"/>
      <path id="Path_8" data-name="Path 8" d="M1072.592,725.683a4.5,4.5,0,0,1-4.381-3.507c-2.791-12.373-.093-19.775,2.287-26.305,2.24-6.145,4.174-11.452,1.965-21.248s-6.235-13.759-10.9-18.347c-4.954-4.876-10.568-10.4-13.359-22.777s-.092-19.774,2.288-26.305c2.24-6.144,4.174-11.451,1.965-21.247s-6.235-13.76-10.9-18.348c-4.953-4.876-10.568-10.4-13.358-22.777s-.093-19.776,2.288-26.306c2.239-6.146,4.174-11.452,1.964-21.25s-6.235-13.76-10.9-18.348c-4.954-4.877-10.568-10.4-13.359-22.778a4.5,4.5,0,1,1,8.771-1.978c2.21,9.8,6.234,13.76,10.9,18.348,4.953,4.877,10.568,10.4,13.359,22.779s.093,19.775-2.287,26.306c-2.24,6.146-4.174,11.452-1.965,21.25s6.235,13.759,10.9,18.347c4.954,4.877,10.568,10.4,13.359,22.777s.093,19.774-2.288,26.305c-2.239,6.145-4.174,11.451-1.964,21.248s6.234,13.759,10.895,18.347c4.954,4.877,10.568,10.4,13.359,22.776s.093,19.775-2.288,26.306c-2.24,6.144-4.174,11.451-1.965,21.247a4.5,4.5,0,0,1-4.39,5.486Z" transform="translate(-734.734 -202.962)" fill="#26aa99"/>
      <path id="Path_9" data-name="Path 9" d="M865.407,836.516A4.485,4.485,0,0,1,862.04,835c-.206-.228-9.451-10.372-29.53-20.585-18.683-9.5-50.835-21.008-97.908-21.862a4.5,4.5,0,1,1,.163-8.99c49.107.891,82.766,13.059,102.355,23.111,21.514,11.039,31.251,21.912,31.655,22.37a4.5,4.5,0,0,1-3.368,7.471Z" transform="translate(-613.002 -348.788)" fill="#fb0"/>
      <path id="Path_10" data-name="Path 10" d="M596.269,902.509,617.68,923.92H596.269Z" transform="translate(-554.341 -400.891)" fill="#d0011b"/>
      <path id="Path_11" data-name="Path 11" d="M865.107,798.842a4.5,4.5,0,0,1-4.218-2.938c-.13-.352-13.589-35.915-48.537-69.612a213.891,213.891,0,0,0-70.526-45.333c-32.978-12.968-70.215-18.281-110.684-15.79a4.5,4.5,0,0,1-.552-8.975c41.892-2.577,80.51,2.973,114.783,16.5A222.842,222.842,0,0,1,818.9,720.11c36.284,35.115,49.867,71.16,50.428,72.677a4.5,4.5,0,0,1-4.216,6.055Z" transform="translate(-567.526 -292.727)" fill="#0053d1"/>
      <path id="Path_12" data-name="Path 12" d="M1129.185,950.533l-97.524-35.992-97.524-35.993,67.425-63.509,67.425-63.509,30.1,99.5Z" transform="translate(-702.339 -334.757)" fill="#d0011b"/>
      <rect id="Rectangle_5" data-name="Rectangle 5" width="19.416" height="19.416" transform="translate(353.725 309.154)" fill="#fb0"/>
      <rect id="Rectangle_6" data-name="Rectangle 6" width="29.672" height="29.672" transform="translate(218.857 352.006)" fill="#26aa99"/>
      <rect id="Rectangle_7" data-name="Rectangle 7" width="19.416" height="19.416" transform="translate(166.73 516.616) rotate(-45)" fill="#0053d1"/>
      <rect id="Rectangle_8" data-name="Rectangle 8" width="19.416" height="19.416" transform="translate(224.944 250.58) rotate(-45)" fill="#136"/>
    </g>
  </g>
</svg>
