<svg xmlns="http://www.w3.org/2000/svg" width="365.955" height="449.413" viewBox="0 0 365.955 449.413">
  <g id="Group_2" data-name="Group 2" transform="translate(-461.299 191.576)">
    <path id="Path_1" data-name="Path 1" d="M1069.566,260.325l-27.908-27.908h27.908Z" transform="translate(-242.311 -177.026)" fill="#fb0"/>
    <path id="Path_2" data-name="Path 2" d="M772.952,323.148a4.659,4.659,0,0,1-3.152-8.092c.58-.532,14.483-13.147,39.3-24.518a195.328,195.328,0,0,1,105.271-16.16,4.66,4.66,0,1,1-1.136,9.25,186.039,186.039,0,0,0-99.915,15.228c-23.595,10.754-37.091,22.95-37.224,23.072A4.646,4.646,0,0,1,772.952,323.148Z" transform="translate(-128.175 -193.924)" fill="#26aa99"/>
    <path id="Path_3" data-name="Path 3" d="M634.992,238.686a4.66,4.66,0,0,1-3.3-7.955c9.3-9.3,17.276-11.03,24.316-12.561,6.624-1.44,12.345-2.683,19.705-10.044s8.6-13.08,10.043-19.7c1.53-7.04,3.264-15.02,12.56-24.316s17.275-11.03,24.316-12.561c6.625-1.439,12.346-2.683,19.706-10.044s8.6-13.081,10.044-19.706c1.53-7.04,3.265-15.02,12.561-24.317s17.276-11.031,24.317-12.561c6.625-1.44,12.346-2.684,19.707-10.045s8.6-13.082,10.045-19.707c1.53-7.04,3.265-15.02,12.562-24.317a4.66,4.66,0,0,1,6.59,6.591c-7.361,7.361-8.6,13.083-10.044,19.707-1.531,7.04-3.266,15.02-12.562,24.317s-17.276,11.03-24.317,12.561c-6.625,1.44-12.346,2.684-19.707,10.045s-8.6,13.081-10.044,19.706c-1.53,7.04-3.265,15.021-12.561,24.317s-17.275,11.03-24.316,12.56c-6.625,1.44-12.345,2.683-19.706,10.044s-8.6,13.08-10.043,19.7c-1.53,7.04-3.264,15.02-12.559,24.316s-17.276,11.03-24.316,12.561c-6.625,1.44-12.345,2.683-19.705,10.044A4.645,4.645,0,0,1,634.992,238.686Z" transform="translate(-70.575 -92.297)" fill="#136"/>
    <path id="Path_4" data-name="Path 4" d="M563.922,172.429a4.66,4.66,0,0,1-3.579-7.642h0c.15-.179,15.064-18.4,25.168-52.108a228.724,228.724,0,0,0,9.334-62.947c.33-27.523-3.872-56.409-12.49-85.855a4.659,4.659,0,0,1,3.163-5.781A4.658,4.658,0,0,1,591.3-38.74c8.917,30.468,13.244,60.4,12.861,88.962a237.728,237.728,0,0,1-9.878,65.655c-10.692,35.349-26.127,54.1-26.78,54.878A4.648,4.648,0,0,1,563.922,172.429Z" transform="translate(-40.903 -62.413)" fill="#fb0"/>
    <path id="Path_5" data-name="Path 5" d="M862.653,399.864l22.193,22.193H862.653Z" transform="translate(-167.573 -246.938)" fill="#0053d1"/>
    <path id="Path_6" data-name="Path 6" d="M461.3,430.4l26.908-104.335,26.908-104.334,72.547,62.882L660.211,347.5l-99.456,41.452Z" transform="translate(0 -172.564)" fill="#0053d1"/>
    <rect id="Rectangle_1" data-name="Rectangle 1" width="20.125" height="20.125" transform="translate(659.65 -81.921)" fill="#136"/>
    <rect id="Rectangle_2" data-name="Rectangle 2" width="20.125" height="20.125" transform="translate(739.466 -191.576)" fill="#d0011b"/>
    <rect id="Rectangle_3" data-name="Rectangle 3" width="29.324" height="29.324" transform="translate(584.434 26.408) rotate(-45)" fill="#0053d1"/>
    <rect id="Rectangle_4" data-name="Rectangle 4" width="22.755" height="22.755" transform="translate(601.035 -131.809) rotate(-45)" fill="#26aa99"/>
  </g>
</svg>
